PathFileType	4	(X/Y/Z)	51_1_tpose_p0_0-257.trc
DataRate	CameraRate	NumFrames	NumMarkers	Units	OrigDataRate	OrigDataStartFrame	OrigNumFrames
60.0	60.0	5	27	m	60.0	161	258
Frame#	Time	RHip			RKnee			RAnkle			RBigToe			RSmallToe			RHeel			LHip			LKnee			LAnkle			LBigToe			LSmallToe			LHeel			Neck			Head			Nose			RShoulder			RElbow			RWrist			RThumb			RIndex			RPinky			LShoulder			LElbow			LWrist			LThumb			LIndex			LPinky			
		X1	Y1	Z1	X2	Y2	Z2	X3	Y3	Z3	X4	Y4	Z4	X5	Y5	Z5	X6	Y6	Z6	X7	Y7	Z7	X8	Y8	Z8	X9	Y9	Z9	X10	Y10	Z10	X11	Y11	Z11	X12	Y12	Z12	X13	Y13	Z13	X14	Y14	Z14	X15	Y15	Z15	X16	Y16	Z16	X17	Y17	Z17	X18	Y18	Z18	X19	Y19	Z19	X20	Y20	Z20	X21	Y21	Z21	X22	Y22	Z22	X23	Y23	Z23	X24	Y24	Z24	X25	Y25	Z25	X26	Y26	Z26	X27	Y27	Z27	
161	2.683333333333333	0.07540432269038988	0.47436252267057966	0.5429408705533382	0.09908044930434166	0.6051985574556076	1.033828034679165	0.07983358779688159	0.6563960417104802	1.4745331713052992	0.05116064820060755	0.5184066766518663	1.5201800303730637	0.10074355944751477	0.5344215092183319	1.5249953459336356	0.04295343949244294	0.780304510734383	1.5766814687015795	-0.10571178573018072	0.4856978738618238	0.5487550670967206	-0.1342065614659151	0.583718138474055	1.033610828060216	-0.14857182607086705	0.6626779356798203	1.4870547649043688	-0.11252568994378566	0.4728095985340448	1.4964692556239878	-0.16639190469162535	0.5132596652753655	1.5061329077586816	-0.15271614253957744	0.7208391526473423	1.5523221137291423	-0.0010481606624884693	0.44897307574292283	-0.014901219399162538	0.0123769614842916	0.37632711930796087	-0.23257419157660486	-0.009557742372968027	0.31192943508253385	-0.11372853518489988	0.14995205836191164	0.4711849201075313	0.0643112550454794	0.4091116629548475	0.4931896316358503	0.08387600035331799	0.627031171005457	0.434871286207854	0.07772366580616998	0.752232476999543	0.40066088740802036	0.11283020893811238	0.7803461197133161	0.432485757581013	0.11251600258339675	0.7687805540782094	0.47921755789314735	0.1276904703371463	-0.15259055643050315	0.4820789686765984	0.0587043143443432	-0.4242642022990262	0.42845881799274255	0.07237627296415745	-0.6688232500491672	0.38536192118663376	0.02848102393294253	-0.7334684075814761	0.3024366465943686	0.05315646833957723	-0.7864828432541383	0.3418985016265508	0.025557282017921984	-0.7800206429672315	0.3611330969865454	0.02324213194639749
162	2.7	0.07548650783980251	0.47429974248391593	0.5429626966555864	0.09940884017107657	0.6043156562752044	1.0378307907418454	0.08022532052841314	0.6552877381666697	1.478330937294479	0.051230826781614815	0.5183002103393136	1.520351335053587	0.10076678576207405	0.5343643551280725	1.5251274723945563	0.048710460750196874	0.7623347399518857	1.5681085922225755	-0.10016504005461388	0.47258686353558077	0.5463433765189928	-0.13422998841288195	0.5838074495303277	1.0336719686292342	-0.14852693367601016	0.6627436984469868	1.4870299701339686	-0.11239751130991654	0.47268656389354796	1.4964056068819043	-0.16644865337466525	0.5133529300256378	1.506133751417052	-0.15276831612163383	0.7210326926335872	1.552388961273355	-0.0010338496907347538	0.44901848645107306	-0.014833492454037997	0.01238339684417781	0.3763852766745356	-0.23257038473365796	-0.00955701862971702	0.3118818727206914	-0.11371650897173353	0.14674047472168736	0.45938656214858203	0.06416784027867216	0.40868018507443554	0.4919709893804834	0.08079242759294822	0.6270371743053761	0.43475511898129005	0.07772606057945965	0.7520905718247968	0.40125155687852765	0.10974667720233718	0.7802450314596091	0.4326556426154343	0.11256558079448975	0.7681072785723704	0.47941828350942517	0.12486656627844017	-0.15259817602431341	0.48197846776286585	0.05873471434709104	-0.42424441340721725	0.428205097788716	0.07249921440400349	-0.6688346277911996	0.3853502252353379	0.028479152823054424	-0.7338152088428749	0.30403921770600634	0.05667418504759051	-0.7865283155692774	0.3420196433520155	0.02552332944769454	-0.7800774860053478	0.3612948329559302	0.02323584688659324
163	2.716666666666667	0.07546920763297524	0.4741376045102399	0.5428994017643493	0.09942868444185013	0.6043754820621725	1.0376865912169322	0.08376953997784838	0.6698830846059081	1.4848266663653051	0.05126995960586131	0.5181781834103634	1.520321917746712	0.1007996961322791	0.5342305710055264	1.525104409461535	0.048724833433848695	0.7624434726759856	1.567985681546584	-0.10015921654179205	0.4722904645471593	0.5462726438797905	-0.13424190206404235	0.5837494970086087	1.0336328718540606	-0.1484766246427916	0.6626083493148871	1.4868705584985762	-0.11233498608268262	0.47245753406693786	1.4963441471258108	-0.16647719895930305	0.5132836832930866	1.5061124479547536	-0.15277173388374995	0.7209731881545658	1.5523897651456808	-0.001037660581564011	0.44894412912967224	-0.014942190246116805	0.012354325718492092	0.37637001693901323	-0.23258610608028257	-0.009483268106364762	0.3118532705565031	-0.11373215381625908	0.14671926870875404	0.4594382762065046	0.06416683982714533	0.40867462926466025	0.4920570979690315	0.08083003980104458	0.6270997153149026	0.4348582886431561	0.07772416959715284	0.7520290747490421	0.4009842669280251	0.10992612345028334	0.7838494888535293	0.43244098617303084	0.11247808031304596	0.7685191355356731	0.4800206943705801	0.12465568837788772	-0.1526313838734428	0.4819931918369857	0.05878130112014674	-0.4242089980473141	0.42819926501783545	0.07252848560049961	-0.6688011361161335	0.3853045444445045	0.028491442512755462	-0.7335706350196248	0.30268268928548353	0.05274007625112203	-0.7864732981818515	0.34186649501641764	0.025492481827416303	-0.7799297533177727	0.36106684900163155	0.023229724172720543
164	2.7333333333333334	0.07543896289966874	0.4742278734965996	0.5429268684739579	0.09871833954495614	0.6025538990240077	1.0328204705109518	0.08383905374305071	0.6694234007569405	1.484738300970417	0.05140352209050654	0.5180734827541266	1.5204605884532385	0.10046696075459727	0.5311661910521791	1.5242236009371577	0.04898234458872128	0.7614394325727344	1.5716490911882317	-0.10404885204071675	0.47140379830015716	0.5463228083492636	-0.13421995604373643	0.5837000841754648	1.0336605048186684	-0.14843673299385066	0.6627537821620647	1.4870128657807364	-0.11215533297830602	0.4723643551081951	1.4963999241891772	-0.16643570569344832	0.5132303636305199	1.506148610633285	-0.1592695687334151	0.737884913090704	1.5650129379832858	-0.001022015051201125	0.4489140955057	-0.014973125971874945	0.012348581015164306	0.3763593547010764	-0.2325367863249594	-0.009551695201014785	0.3119746093798236	-0.11373513964004883	0.14670913112230022	0.4594649897248872	0.06417582026180789	0.4086990858571964	0.49193943760105524	0.0807368311538383	0.627067971666213	0.4346307601480807	0.07765866230222518	0.7520138416184384	0.4004348661290332	0.11377774818545787	0.7838266871694939	0.43236413752744274	0.11248812544158422	0.7671077791639195	0.49465714458980725	0.12521640526614072	-0.1526321423355542	0.481962237890981	0.05880029359936002	-0.4242081654116995	0.42832550134254177	0.07239902823090824	-0.6684419875765233	0.3726005749508298	0.02844556340702283	-0.7334806275643887	0.3023239622318658	0.052722382193687314	-0.786404128344789	0.3412705542484191	0.025541527872415815	-0.7795691656434698	0.3596597986185783	0.01970528362334916
165	2.75	0.07542856540402071	0.47432696345449316	0.5429626966672677	0.09872455932979525	0.6026277169736173	1.0327936235177277	0.08381231537760978	0.6696786860351084	1.4848781645649205	0.05137641026047595	0.5183046369174237	1.5203854135375376	0.10133144893271012	0.533485218014297	1.5292205556463525	0.04900155041817968	0.7615556509772846	1.5717123270232016	-0.10019619476924871	0.4722717995518749	0.546247351857371	-0.1342478520041518	0.5836331602829821	1.033579314425612	-0.14849095379832655	0.6626865226537564	1.4869864284755445	-0.11209740909871917	0.47242279558645733	1.4964080228256451	-0.16643213462227543	0.5131985896035758	1.5060888993216692	-0.15963156824232663	0.7387421095301387	1.5611708049802093	-0.0010260822181071066	0.44895142138175537	-0.014929218255402202	0.012335216431632032	0.3763623432341368	-0.23256238782395022	-0.009610852157623626	0.311912398079136	-0.1137564826048658	0.14993812542240434	0.47126882673941645	0.06434243664052863	0.40865462278492765	0.4919009159029954	0.08075963199001758	0.6242443083496712	0.40991451741385093	0.07703053076636847	0.7520635457519227	0.4010030875246211	0.10968418825980811	0.780283744141696	0.43229826443178343	0.11250680101379752	0.7627797155605395	0.4672849369000438	0.12523139537852748	-0.1526354346827554	0.48197153194709735	0.05879314578764031	-0.4241473612913578	0.42817274063686583	0.07246097828789975	-0.668456210474784	0.37254504791302817	0.02843706758319837	-0.7335856482567588	0.3021807737428471	0.05282884786291426	-0.7865464750017741	0.3414439042365029	0.025513127102619947	-0.779461616517327	0.3596779490606692	0.019666823226183166
